<svg xmlns="http://www.w3.org/2000/svg" xmlns:xlink="http://www.w3.org/1999/xlink" xmlns:lucid="lucid" width="1990" height="987"><g transform="translate(-74 -78)" lucid:page-tab-id="0_0"><path d="M0 0h3677.73v1322.83H0z" fill="#fff"/><path d="M141.67 1034.86H106a6 6 0 0 1-6-6v-788a6 6 0 0 1 6-6h35.67z" stroke="#7e14a8" stroke-width="2" fill="#fbf0ff"/><path d="M141.67 234.86H394a6 6 0 0 1 6 6v788a6 6 0 0 1-6 6H141.67z" stroke="#7e14a8" stroke-width="2" fill="none"/><use xlink:href="#a" transform="matrix(-1.8369701987210297e-16,-1,1,-1.8369701987210297e-16,100,1034.8626564737303) translate(344.5679012345679 25.444444444444443)"/><path d="M200 120.86a6 6 0 0 1 6-6h148a6 6 0 0 1 6 6v68a6 6 0 0 1-6 6H206a6 6 0 0 1-6-6z" stroke="#3a414a" fill="#edf5ff"/><use xlink:href="#b" transform="matrix(1,0,0,1,212,126.86265647373037) translate(34.75925925925927 31.77777777777778)"/><path d="M200 277.34a6 6 0 0 1 6-6h148a6 6 0 0 1 6 6v68a6 6 0 0 1-6 6H206a6 6 0 0 1-6-6z" stroke="#3a414a" fill="#f4d9ff"/><use xlink:href="#c" transform="matrix(1,0,0,1,212,283.34047818630995) translate(21.117283950617285 31.77777777777778)"/><use xlink:href="#d" transform="matrix(1,0,0,1,212,283.34047818630995) translate(102.53703703703704 31.77777777777778)"/><path d="M200 415.76a6 6 0 0 1 6-6h148a6 6 0 0 1 6 6v68a6 6 0 0 1-6 6H206a6 6 0 0 1-6-6z" stroke="#3a414a" fill="#f4d9ff"/><use xlink:href="#c" transform="matrix(1,0,0,1,212,421.7614350422723) translate(21.117283950617285 31.77777777777778)"/><use xlink:href="#e" transform="matrix(1,0,0,1,212,421.7614350422723) translate(102.53703703703704 31.77777777777778)"/><path d="M200 784.38a6 6 0 0 1 6-6h148a6 6 0 0 1 6 6v68a6 6 0 0 1-6 6H206a6 6 0 0 1-6-6z" stroke="#3a414a" fill="#f4d9ff"/><use xlink:href="#c" transform="matrix(1,0,0,1,212,790.3766524595835) translate(21.117283950617285 31.77777777777778)"/><use xlink:href="#f" transform="matrix(1,0,0,1,212,790.3766524595835) translate(102.53703703703704 31.77777777777778)"/><path d="M200 578.74a6 6 0 0 1 6-6h148a6 6 0 0 1 6 6v68a6 6 0 0 1-6 6H206a6 6 0 0 1-6-6z" stroke="#3a414a" fill="#f4d9ff"/><use xlink:href="#c" transform="matrix(1,0,0,1,212,584.7396548885462) translate(21.117283950617285 31.77777777777778)"/><use xlink:href="#g" transform="matrix(1,0,0,1,212,584.7396548885462) translate(102.53703703703704 31.77777777777778)"/><path d="M200 920.86a6 6 0 0 1 6-6h148a6 6 0 0 1 6 6v68a6 6 0 0 1-6 6H206a6 6 0 0 1-6-6z" stroke="#3a414a" fill="#f4d9ff"/><use xlink:href="#h" transform="matrix(1,0,0,1,212,926.8626564737303) translate(25.46913580246914 31.77777777777778)"/><path d="M440 920.86a6 6 0 0 1 6-6h148a6 6 0 0 1 6 6v68a6 6 0 0 1-6 6H446a6 6 0 0 1-6-6z" stroke="#3a414a" fill="#dedeff"/><use xlink:href="#i" transform="matrix(1,0,0,1,452,926.8626564737303) translate(38.370370370370374 31.77777777777778)"/><path d="M664.85 784.38a6 6 0 0 1 6-6h32.43a6 6 0 0 1 6 6v68a6 6 0 0 1-6 6h-32.43a6 6 0 0 1-6-6zM709.28 784.38a6 6 0 0 1 6-6h32.57a6 6 0 0 1 6 6v68a6 6 0 0 1-6 6h-32.57a6 6 0 0 1-6-6z" stroke="#3a414a" fill="#e3fae3"/><path d="M361.46 818.38h93.82a.14.14 0 0 1 .14.13.14.14 0 0 0 .14.15h93.8" stroke="#7e14a8" stroke-width="2" fill="none"/><path d="M361.5 819.38h-1.04v-2h1.03zM550.37 818.65l.13 1h-1.15v-2h1.15z" stroke="#7e14a8" stroke-width=".05" fill="#7e14a8"/><path d="M601.96 954.86H814.5a6 6 0 0 0 6-6v-69.12" stroke="#635dff" stroke-width="3" fill="none"/><path d="M602 956.36h-1.53v-3H602z" stroke="#635dff" stroke-width=".05" fill="#635dff"/><path d="M820.5 863.97l4.64 14.27h-9.27z" stroke="#635dff" stroke-width="3" fill="#fff"/><path d="M361.46 612.74h319.6a6 6 0 0 1 6 6V725.7" stroke="#7e14a8" stroke-width="2" fill="none"/><path d="M361.5 613.74h-1.04v-2h1.03zM688.07 726.84l-1-.13-1 .14v-1.15h2z" stroke="#7e14a8" stroke-width=".05" fill="#7e14a8"/><path d="M731.57 715.82v43.59" stroke="#7e14a8" stroke-width="2" fill="none"/><path d="M731.57 714.82l1-.13v1.15h-2v-1.16z" stroke="#7e14a8" stroke-width=".05" fill="#7e14a8"/><path d="M731.57 774.68l-4.64-14.27h9.27z" stroke="#7e14a8" stroke-width="2" fill="#7e14a8"/><path d="M361.46 449.76h364.1a6 6 0 0 1 6 6V682.6" stroke="#7e14a8" stroke-width="2" fill="none"/><path d="M361.5 450.76h-1.04v-2h1.03zM732.57 683.74l-1-.13-1 .14v-1.15h2z" stroke="#7e14a8" stroke-width=".05" fill="#7e14a8"/><path d="M776.13 672.72v86.7" stroke="#7e14a8" stroke-width="2" fill="none"/><path d="M776.13 671.72l1-.13v1.15h-2v-1.16z" stroke="#7e14a8" stroke-width=".05" fill="#7e14a8"/><path d="M776.13 774.68l-4.63-14.27h9.27z" stroke="#7e14a8" stroke-width="2" fill="#7e14a8"/><path d="M361.46 311.34h408.67a6 6 0 0 1 6 6V639.5" stroke="#7e14a8" stroke-width="2" fill="none"/><path d="M361.5 312.34h-1.04v-2h1.03zM777.13 640.64l-1-.13-1 .14v-1.16h2z" stroke="#7e14a8" stroke-width=".05" fill="#7e14a8"/><path d="M280 352.8v38" stroke="#3a414a" stroke-width="2" fill="none"/><path d="M281 352.83h-2v-1.03h2z" stroke="#3a414a" stroke-width=".05" fill="#3a414a"/><path d="M280 406.06l-4.64-14.26h9.28z" stroke="#3a414a" stroke-width="2" fill="#3a414a"/><path d="M280 491.22v62.55" stroke="#3a414a" stroke-width="2" fill="none"/><path d="M281 491.25h-2v-1.02h2z" stroke="#3a414a" stroke-width=".05" fill="#3a414a"/><path d="M280 569.04l-4.64-14.27h9.28z" stroke="#3a414a" stroke-width="2" fill="#3a414a"/><path d="M280 654.2v105.2" stroke="#3a414a" stroke-width="2" fill="none"/><path d="M281 654.23h-2v-1.03h2z" stroke="#3a414a" stroke-width=".05" fill="#3a414a"/><path d="M280 774.68l-4.64-14.27h9.28z" stroke="#3a414a" stroke-width="2" fill="#3a414a"/><path d="M280 859.84v36.06" stroke="#3a414a" stroke-width="2" fill="none"/><path d="M281 859.87h-2v-1.03h2z" stroke="#3a414a" stroke-width=".05" fill="#3a414a"/><path d="M280 911.16l-4.64-14.26h9.28z" stroke="#3a414a" stroke-width="2" fill="#3a414a"/><path d="M361.46 954.86h76.26" stroke="#7e14a8" stroke-width="2" fill="none"/><path d="M361.5 955.86h-1.04v-2h1.03z" stroke="#7e14a8" stroke-width=".05" fill="#7e14a8"/><path d="M420.36 965.04l17.2-10.18-17.2-10.18" stroke="#7e14a8" stroke-width="2" fill="none"/><path d="M581.08 818.65c0 8.34-6.76 15.1-15.1 15.1s-15.1-6.76-15.1-15.1 6.76-15.1 15.1-15.1 15.1 6.76 15.1 15.1z" stroke="#3a414a" fill="#fff7a1"/><use xlink:href="#j" transform="matrix(1,0,0,1,555.8767585930611,808.54995954081) translate(3.0925925925925934 17.77777777777778)"/><path d="M520 913.4v-33.07a6 6 0 0 1 6-6h33.98a6 6 0 0 0 6-6v-33.07" stroke="#635dff" stroke-width="2" fill="none"/><path d="M521 914.4h-2v-1.03h2zM565.98 834.26l1-.13v1.15h-2v-1.15z" stroke="#635dff" stroke-width=".05" fill="#635dff"/><path d="M702.17 742.32c0 8.34-6.76 15.1-15.1 15.1-8.35 0-15.1-6.76-15.1-15.1s6.75-15.1 15.1-15.1c8.34 0 15.1 6.76 15.1 15.1z" stroke="#3a414a" fill="#fff7a1"/><use xlink:href="#j" transform="matrix(1,0,0,1,676.9639182533965,732.2166262074766) translate(3.0925925925925934 17.77777777777778)"/><path d="M687.07 758.92v.5" stroke="#7e14a8" stroke-width="2" fill="none"/><path d="M687.07 757.92l1-.13v1.15h-2v-1.16z" stroke="#7e14a8" stroke-width=".05" fill="#7e14a8"/><path d="M687.07 774.68l-4.64-14.27h9.27z" stroke="#7e14a8" stroke-width="2" fill="#7e14a8"/><path d="M520 913.4V748.32a6 6 0 0 1 6-6h144.46" stroke="#635dff" stroke-width="2" fill="none"/><path d="M521 914.4h-2v-1.03h2zM671.46 742.32l.13 1h-1.17v-2h1.16z" stroke="#635dff" stroke-width=".05" fill="#635dff"/><path d="M746.67 699.22c0 8.34-6.76 15.1-15.1 15.1s-15.1-6.76-15.1-15.1 6.76-15.1 15.1-15.1 15.1 6.76 15.1 15.1z" stroke="#3a414a" fill="#fff7a1"/><use xlink:href="#j" transform="matrix(1,0,0,1,721.4641499879067,689.1154047760185) translate(3.0925925925925934 17.77777777777778)"/><path d="M520 913.4V705.22a6 6 0 0 1 6-6h188.96" stroke="#635dff" stroke-width="2" fill="none"/><path d="M521 914.4h-2v-1.03h2zM715.96 699.22l.13 1h-1.17v-2h1.16z" stroke="#635dff" stroke-width=".05" fill="#635dff"/><path d="M791.23 656.12c0 8.34-6.76 15.1-15.1 15.1s-15.1-6.76-15.1-15.1 6.76-15.1 15.1-15.1 15.1 6.76 15.1 15.1z" stroke="#3a414a" fill="#fff7a1"/><use xlink:href="#j" transform="matrix(1,0,0,1,766.0297497589409,646.0141833445605) translate(3.0925925925925934 17.77777777777778)"/><path d="M520 913.4V662.12a6 6 0 0 1 6-6h233.53" stroke="#635dff" stroke-width="2" fill="none"/><path d="M521 914.4h-2v-1.03h2zM760.53 656.12l.13 1h-1.16v-2h1.16z" stroke="#635dff" stroke-width=".05" fill="#635dff"/><path d="M753.85 784.38a6 6 0 0 1 6-6h32.43a6 6 0 0 1 6 6v68a6 6 0 0 1-6 6h-32.43a6 6 0 0 1-6-6zM798.28 784.65a6 6 0 0 1 6-6h32.44a6 6 0 0 1 6 6v68a6 6 0 0 1-6 6h-32.44a6 6 0 0 1-6-6zM620.4 784.65a6 6 0 0 1 6-6h32.45a6 6 0 0 1 6 6v68a6 6 0 0 1-6 6H626.4a6 6 0 0 1-6-6z" stroke="#3a414a" fill="#e3fae3"/><path d="M582.58 818.65h35.55" stroke="#7e14a8" stroke-width="2" fill="none"/><path d="M582.6 819.65h-1.15l.13-1-.13-1h1.16z" stroke="#7e14a8" stroke-width=".05" fill="#7e14a8"/><path d="M600.77 828.83l17.2-10.18-17.2-10.18" stroke="#7e14a8" stroke-width="2" fill="none"/><path d="M842.72 784.65a6 6 0 0 1 6-6h32.43a6 6 0 0 1 6 6v68a6 6 0 0 1-6 6h-32.43a6 6 0 0 1-6-6z" stroke="#3a414a" fill="#c3f7c8"/><path d="M946.26 578.74a6 6 0 0 1 6-6h32.43a6 6 0 0 1 6 6v68a6 6 0 0 1-6 6h-32.44a6 6 0 0 1-6-6zM990.7 578.74a6 6 0 0 1 6-6h32.56a6 6 0 0 1 6 6v68a6 6 0 0 1-6 6H996.7a6 6 0 0 1-6-6z" stroke="#3a414a" fill="#e3fae3"/><path d="M1012.98 510.2v43.57" stroke="#7e14a8" stroke-width="2" fill="none"/><path d="M1012.98 509.2l1-.15v1.16h-2v-1.15z" stroke="#7e14a8" stroke-width=".05" fill="#7e14a8"/><path d="M1012.98 569.04l-4.64-14.27h9.27z" stroke="#7e14a8" stroke-width="2" fill="#7e14a8"/><path d="M983.58 536.68c0 8.34-6.76 15.1-15.1 15.1s-15.1-6.76-15.1-15.1 6.76-15.1 15.1-15.1 15.1 6.76 15.1 15.1z" stroke="#3a414a" fill="#fff7a1"/><use xlink:href="#j" transform="matrix(1,0,0,1,958.374969144058,526.5796286364396) translate(3.0925925925925934 17.77777777777778)"/><path d="M968.48 553.3v.47" stroke="#7e14a8" stroke-width="2" fill="none"/><path d="M968.48 552.3l1-.14v1.15h-2v-1.14z" stroke="#7e14a8" stroke-width=".05" fill="#7e14a8"/><path d="M968.48 569.04l-4.64-14.27h9.27z" stroke="#7e14a8" stroke-width="2" fill="#7e14a8"/><path d="M1028.08 493.58c0 8.34-6.76 15.1-15.1 15.1s-15.1-6.76-15.1-15.1 6.76-15.1 15.1-15.1 15.1 6.76 15.1 15.1z" stroke="#3a414a" fill="#fff7a1"/><use xlink:href="#j" transform="matrix(1,0,0,1,1002.8752008785682,483.4784072049814) translate(3.0925925925925934 17.77777777777778)"/><path d="M1035.26 578.74a6 6 0 0 1 6-6h32.43a6 6 0 0 1 6 6v68a6 6 0 0 1-6 6h-32.44a6 6 0 0 1-6-6zM1079.7 579a6 6 0 0 1 6-6h32.43a6 6 0 0 1 6 6v68a6 6 0 0 1-6 6h-32.44a6 6 0 0 1-6-6zM901.82 579a6 6 0 0 1 6-6h32.44a6 6 0 0 1 6 6v68a6 6 0 0 1-6 6h-32.44a6 6 0 0 1-6-6z" stroke="#3a414a" fill="#e3fae3"/><path d="M864.94 777.2v-67.8a6 6 0 0 0-6-6H826.7a6 6 0 0 1-6-6v-67.78" stroke="#105e17" stroke-width="2" fill="none"/><path d="M865.94 778.18h-2v-1.02h2zM820.7 628.62l1-.13v1.15h-2v-1.16z" stroke="#105e17" stroke-width=".05" fill="#105e17"/><path d="M361.46 311.34h645.52a6 6 0 0 1 6 6v159.63" stroke="#7e14a8" stroke-width="2" fill="none"/><path d="M361.5 312.34h-1.04v-2h1.03zM1013.98 478.1l-1-.13-1 .14v-1.15h2z" stroke="#7e14a8" stroke-width=".05" fill="#7e14a8"/><path d="M361.46 449.76h601.02a6 6 0 0 1 6 6v64.32" stroke="#7e14a8" stroke-width="2" fill="none"/><path d="M361.5 450.76h-1.04v-2h1.03zM969.48 521.2l-1-.12-1 .13v-1.15h2z" stroke="#7e14a8" stroke-width=".05" fill="#7e14a8"/><path d="M864.94 777.2V542.67a6 6 0 0 1 6-6h80.93" stroke="#105e17" stroke-width="2" fill="none"/><path d="M865.94 778.18h-2v-1.02h2zM952.87 536.68l.13 1h-1.15v-2H953z" stroke="#105e17" stroke-width=".05" fill="#105e17"/><path d="M864.94 777.2V499.57a6 6 0 0 1 6-6h125.43" stroke="#105e17" stroke-width="2" fill="none"/><path d="M865.94 778.18h-2v-1.02h2zM997.37 493.58l.13 1h-1.15v-2h1.15z" stroke="#105e17" stroke-width=".05" fill="#105e17"/><path d="M361.46 612.74h221.18a.14.14 0 0 1 .14.14.14.14 0 0 0 .13.13h221.2" stroke="#7e14a8" stroke-width="2" fill="none"/><path d="M361.5 613.74h-1.04v-2h1.03zM805.1 613l.12 1h-1.15v-2h1.15z" stroke="#7e14a8" stroke-width=".05" fill="#7e14a8"/><path d="M1124.13 579a6 6 0 0 1 6-6h32.43a6 6 0 0 1 6 6v68a6 6 0 0 1-6 6h-32.43a6 6 0 0 1-6-6z" stroke="#3a414a" fill="#c3f7c8"/><path d="M889.12 818.65h162.36a6 6 0 0 0 6-6V673.82" stroke="#105e17" stroke-width="3" fill="none"/><path d="M889.15 820.15h-1.53v-3h1.53z" stroke="#105e17" stroke-width=".05" fill="#105e17"/><path d="M1057.48 658.06l4.63 14.26h-9.26z" stroke="#105e17" stroke-width="3" fill="#fff"/><path d="M601.96 954.86h493.95a6 6 0 0 0 6-6V674.1" stroke="#635dff" stroke-width="3" fill="none"/><path d="M602 956.36h-1.53v-3H602z" stroke="#635dff" stroke-width=".05" fill="#635dff"/><path d="M1101.9 658.33l4.65 14.27h-9.27z" stroke="#635dff" stroke-width="3" fill="#fff"/><path d="M1224.85 415.5a6 6 0 0 1 6-6h32.44a6 6 0 0 1 6 6v68a6 6 0 0 1-6 6h-32.45a6 6 0 0 1-6-6zM1269.3 415.5a6 6 0 0 1 6-6h32.55a6 6 0 0 1 6 6v68a6 6 0 0 1-6 6h-32.56a6 6 0 0 1-6-6z" stroke="#3a414a" fill="#e3fae3"/><path d="M1117 449.76c0 8.34-6.75 15.1-15.1 15.1-8.33 0-15.1-6.76-15.1-15.1s6.77-15.1 15.1-15.1c8.35 0 15.1 6.76 15.1 15.1z" stroke="#3a414a" fill="#fff7a1"/><use xlink:href="#j" transform="matrix(1,0,0,1,1091.810296518749,439.6602136108142) translate(3.0925925925925934 17.77777777777778)"/><path d="M1262.17 373.43c0 8.34-6.76 15.1-15.1 15.1s-15.1-6.76-15.1-15.1 6.76-15.1 15.1-15.1 15.1 6.76 15.1 15.1z" stroke="#3a414a" fill="#fff7a1"/><use xlink:href="#j" transform="matrix(1,0,0,1,1236.9690807763793,363.32688027748065) translate(3.0925925925925934 17.77777777777778)"/><path d="M1247.07 390.03v.5" stroke="#7e14a8" stroke-width="2" fill="none"/><path d="M1247.07 389.03l1-.13v1.16h-2v-1.16z" stroke="#7e14a8" stroke-width=".05" fill="#7e14a8"/><path d="M1247.07 405.8l-4.63-14.28h9.27z" stroke="#7e14a8" stroke-width="2" fill="#7e14a8"/><path d="M1313.85 415.5a6 6 0 0 1 6-6h32.44a6 6 0 0 1 6 6v68a6 6 0 0 1-6 6h-32.45a6 6 0 0 1-6-6zM1358.3 415.76a6 6 0 0 1 6-6h32.42a6 6 0 0 1 6 6v68a6 6 0 0 1-6 6h-32.43a6 6 0 0 1-6-6zM1180.42 415.76a6 6 0 0 1 6-6h32.43a6 6 0 0 1 6 6v68a6 6 0 0 1-6 6h-32.43a6 6 0 0 1-6-6z" stroke="#3a414a" fill="#e3fae3"/><path d="M1118.52 449.76h59.62" stroke="#7e14a8" stroke-width="2" fill="none"/><path d="M1118.54 450.76h-1.15l.12-1-.13-1h1.14z" stroke="#7e14a8" stroke-width=".05" fill="#7e14a8"/><path d="M1160.78 459.94l17.2-10.18-17.2-10.18" stroke="#7e14a8" stroke-width="2" fill="none"/><path d="M1146.35 571.55v-46.6a6 6 0 0 0-6-6h-32.44a6 6 0 0 1-6-6v-46.58" stroke="#3ca445" stroke-width="2" fill="none"/><path d="M1147.35 572.55h-2v-1.03h2zM1101.9 465.37l1-.13v1.15h-2v-1.16z" stroke="#3ca445" stroke-width=".05" fill="#3ca445"/><path d="M1146.35 571.55V379.43a6 6 0 0 1 6-6h78.1" stroke="#3ca445" stroke-width="2" fill="none"/><path d="M1147.35 572.55h-2v-1.03h2zM1231.46 373.43l.14 1h-1.16v-2h1.16z" stroke="#3ca445" stroke-width=".05" fill="#3ca445"/><path d="M361.46 311.34h879.6a6 6 0 0 1 6 6v39.48" stroke="#7e14a8" stroke-width="2" fill="none"/><path d="M361.5 312.34h-1.04v-2h1.03zM1248.07 357.95l-1-.13-1 .13v-1.15h2z" stroke="#7e14a8" stroke-width=".05" fill="#7e14a8"/><path d="M1170.53 613h115.04a6 6 0 0 0 6-6v-96.43" stroke="#3ca445" stroke-width="3" fill="none"/><path d="M1170.57 614.5h-1.54v-3h1.54z" stroke="#3ca445" stroke-width=".05" fill="#3ca445"/><path d="M1291.57 494.8l4.64 14.27h-9.26z" stroke="#3ca445" stroke-width="3" fill="#fff"/><path d="M889.12 818.65h440.95a6 6 0 0 0 6-6V510.57" stroke="#105e17" stroke-width="3" fill="none"/><path d="M889.15 820.15h-1.53v-3h1.53z" stroke="#105e17" stroke-width=".05" fill="#105e17"/><path d="M1336.07 494.8l4.64 14.27h-9.26z" stroke="#105e17" stroke-width="3" fill="#fff"/><path d="M601.96 954.86h772.55a6 6 0 0 0 6-6v-438" stroke="#635dff" stroke-width="3" fill="none"/><path d="M602 956.36h-1.53v-3H602z" stroke="#635dff" stroke-width=".05" fill="#635dff"/><path d="M1380.5 495.08l4.64 14.27h-9.27z" stroke="#635dff" stroke-width="3" fill="#fff"/><path d="M361.46 449.76h723.85" stroke="#7e14a8" stroke-width="2" fill="none"/><path d="M361.5 450.76h-1.04v-2h1.03zM1086.3 449.76l.14 1h-1.16v-2h1.16z" stroke="#7e14a8" stroke-width=".05" fill="#7e14a8"/><path d="M1520.12 277.34a6 6 0 0 1 6-6h32.43a6 6 0 0 1 6 6v68a6 6 0 0 1-6 6h-32.43a6 6 0 0 1-6-6zM1564.55 277.34a6 6 0 0 1 6-6h32.57a6 6 0 0 1 6 6v68a6 6 0 0 1-6 6h-32.57a6 6 0 0 1-6-6z" stroke="#3a414a" fill="#e3fae3"/><path d="M1440.04 311.62c0 8.34-6.76 15.1-15.1 15.1s-15.1-6.76-15.1-15.1c0-8.35 6.76-15.1 15.1-15.1s15.1 6.75 15.1 15.1z" stroke="#3a414a" fill="#fff7a1"/><use xlink:href="#j" transform="matrix(1,0,0,1,1414.8392719875126,301.51378526753666) translate(3.0925925925925934 17.77777777777778)"/><path d="M1609.12 277.34a6 6 0 0 1 6-6h32.43a6 6 0 0 1 6 6v68a6 6 0 0 1-6 6h-32.43a6 6 0 0 1-6-6zM1653.55 277.62a6 6 0 0 1 6-6H1692a6 6 0 0 1 6 6v68a6 6 0 0 1-6 6h-32.45a6 6 0 0 1-6-6zM1475.68 277.62a6 6 0 0 1 6-6h32.44a6 6 0 0 1 6 6v68a6 6 0 0 1-6 6h-32.44a6 6 0 0 1-6-6z" stroke="#3a414a" fill="#e3fae3"/><path d="M1698 277.62a6 6 0 0 1 6-6h32.42a6 6 0 0 1 6 6v68a6 6 0 0 1-6 6H1704a6 6 0 0 1-6-6z" stroke="#3a414a" fill="#c3f7c8"/><path d="M1441.55 311.62h31.85" stroke="#7e14a8" stroke-width="2" fill="none"/><path d="M1441.57 312.62h-1.16l.15-1-.14-1h1.17z" stroke="#7e14a8" stroke-width=".05" fill="#7e14a8"/><path d="M1456.04 321.8l17.2-10.18-17.2-10.2M361.46 311.34h523.38a.07.07 0 0 1 .07.07.07.07 0 0 0 .08.08h523.37" stroke="#7e14a8" stroke-width="2" fill="none"/><path d="M361.5 312.34h-1.04v-2h1.03zM1409.33 311.62l.12.86h-1.12v-2h1.15z" stroke="#7e14a8" stroke-width=".05" fill="#7e14a8"/><path d="M1424.94 408.3v-80.08" stroke="#54c45e" stroke-width="2" fill="none"/><path d="M1425.94 409.3h-2v-1.03h2zM1424.94 327.22l1-.13v1.15h-2v-1.16z" stroke="#54c45e" stroke-width=".05" fill="#54c45e"/><path d="M1449.12 449.76h86.76a6 6 0 0 0 6-6v-71.33" stroke="#54c45e" stroke-width="3" fill="none"/><path d="M1449.16 451.26h-1.54v-3h1.54z" stroke="#54c45e" stroke-width=".05" fill="#54c45e"/><path d="M1541.88 356.66l4.64 14.27h-9.27z" stroke="#54c45e" stroke-width="3" fill="#fff"/><path d="M1170.53 613h410.3a6 6 0 0 0 6-6V372.43" stroke="#3ca445" stroke-width="3" fill="none"/><path d="M1170.57 614.5h-1.54v-3h1.54z" stroke="#3ca445" stroke-width=".05" fill="#3ca445"/><path d="M1586.84 356.66l4.63 14.26h-9.27z" stroke="#3ca445" stroke-width="3" fill="#fff"/><path d="M889.12 818.65h736.22a6 6 0 0 0 6-6V372.42" stroke="#105e17" stroke-width="3" fill="none"/><path d="M889.15 820.15h-1.53v-3h1.53z" stroke="#105e17" stroke-width=".05" fill="#105e17"/><path d="M1631.34 356.66l4.63 14.26h-9.27z" stroke="#105e17" stroke-width="3" fill="#fff"/><path d="M601.96 954.86h1067.8a6 6 0 0 0 6-6V372.7" stroke="#635dff" stroke-width="3" fill="none"/><path d="M602 956.36h-1.53v-3H602z" stroke="#635dff" stroke-width=".05" fill="#635dff"/><path d="M1675.77 356.93l4.64 14.27h-9.26z" stroke="#635dff" stroke-width="3" fill="#fff"/><path d="M620.4 804.46a6 6 0 0 1 6-6h210.32a6 6 0 0 1 6 6v28.38a6 6 0 0 1-6 6h-210.3a6 6 0 0 1-6-6z" stroke="#3a414a" fill="#b8f5ed"/><use xlink:href="#k" transform="matrix(1,0,0,1,632.4128439994195,810.4633060001969) translate(49.15432098765434 14.222222222222218)"/><path d="M901.82 598.83a6 6 0 0 1 6-6h210.3a6 6 0 0 1 6 6v28.37a6 6 0 0 1-6 6h-210.3a6 6 0 0 1-6-6z" stroke="#3a414a" fill="#b8f5ed"/><use xlink:href="#k" transform="matrix(1,0,0,1,913.8238948900809,604.8263084291597) translate(49.15432098765434 14.222222222222218)"/><path d="M835.8 613c0 8.35-6.76 15.12-15.1 15.12s-15.1-6.77-15.1-15.1c0-8.35 6.76-15.1 15.1-15.1s15.1 6.75 15.1 15.1z" stroke="#3a414a" fill="#fff7a1"/><use xlink:href="#j" transform="matrix(1,0,0,1,810.595349529975,602.9129619131024) translate(3.0925925925925934 17.77777777777778)"/><path d="M837.3 613H899.53" stroke="#7e14a8" stroke-width="2" fill="none"/><path d="M837.33 614h-1.16l.13-1-.13-1h1.16z" stroke="#7e14a8" stroke-width=".05" fill="#7e14a8"/><path d="M882.18 623.2l17.2-10.2-17.2-10.17" stroke="#7e14a8" stroke-width="2" fill="none"/><path d="M1870.23 120.86a6 6 0 0 1 6-6h148a6 6 0 0 1 6 6v68a6 6 0 0 1-6 6h-148a6 6 0 0 1-6-6z" stroke="#3a414a" fill="#fff3d9"/><use xlink:href="#l" transform="matrix(1,0,0,1,1882.2304192551564,126.86265647373037) translate(22.444444444444443 31.77777777777778)"/><path d="M1180.42 435.57a6 6 0 0 1 6-6h210.3a6 6 0 0 1 6 6v28.38a6 6 0 0 1-6 6h-210.3a6 6 0 0 1-6-6z" stroke="#3a414a" fill="#b8f5ed"/><use xlink:href="#k" transform="matrix(1,0,0,1,1192.4180065224018,441.573560070201) translate(49.15432098765434 14.222222222222218)"/><path d="M1475.68 297.43a6 6 0 0 1 6-6h210.3a6 6 0 0 1 6 6v28.37a6 6 0 0 1-6 6h-210.3a6 6 0 0 1-6-6z" stroke="#3a414a" fill="#b8f5ed"/><use xlink:href="#k" transform="matrix(1,0,0,1,1487.6827514724864,303.42713172692345) translate(49.15432098765434 14.222222222222218)"/><path d="M280 196.33v72.73" stroke="#3a414a" stroke-width="2" fill="none"/><path d="M281 196.35h-2v-1.02h2z" stroke="#3a414a" stroke-width=".05" fill="#3a414a"/><path d="M269.82 251.7L280 268.9l10.18-17.2" stroke="#3a414a" stroke-width="2" fill="none"/><path d="M1742.42 120.86a6 6 0 0 1 6-6h5.58a6 6 0 0 1 6 6v68a6 6 0 0 1-6 6h-5.58a6 6 0 0 1-6-6z" stroke="#3a414a" fill="#fcfcca"/><path d="M1698 120.86a6 6 0 0 1 6-6h32.42a6 6 0 0 1 6 6v68a6 6 0 0 1-6 6H1704a6 6 0 0 1-6-6z" stroke="#3a414a" fill="#c3f7c8"/><path d="M1761.46 154.86h106.5" stroke="#3a414a" stroke-width="2" fill="none"/><path d="M1761.5 155.86h-1.04v-2h1.03z" stroke="#3a414a" stroke-width=".05" fill="#3a414a"/><path d="M1850.6 165.04l17.2-10.18-17.2-10.18" stroke="#3a414a" stroke-width="2" fill="none"/><path d="M1720.2 269.65v-53.7" stroke="#54c45e" stroke-width="3" fill="none"/><path d="M1721.7 271.15h-3v-1.54h3z" stroke="#54c45e" stroke-width=".05" fill="#54c45e"/><path d="M1720.2 200.18l4.64 14.27h-9.27z" stroke="#54c45e" stroke-width="3" fill="#fff"/><path d="M1771.96 499.76h37.92M1772 499.76h-1.54" stroke="#3a414a" stroke-width="3" fill="none"/><path d="M1825.64 499.76l-14.26 4.64v-9.27z" stroke="#3a414a" stroke-width="3" fill="#fff"/><path d="M1830.46 475.76a6 6 0 0 1 6-6h108a6 6 0 0 1 6 6v48a6 6 0 0 1-6 6h-108a6 6 0 0 1-6-6z" stroke="#000" stroke-opacity="0" fill="#fff" fill-opacity="0"/><use xlink:href="#m" transform="matrix(1,0,0,1,1835.460838510313,474.7614350422723) translate(0 30.27777777777778)"/><path d="M1771.96 439.76h37.92M1772 439.76h-1.54" stroke="#3a414a" stroke-width="3" fill="none"/><path d="M1825.64 439.76l-14.26 4.64v-9.27z" stroke="#3a414a" stroke-width="3" fill="#3a414a"/><path d="M1830.46 415.76a6 6 0 0 1 6-6h138a6 6 0 0 1 6 6v48a6 6 0 0 1-6 6h-138a6 6 0 0 1-6-6z" stroke="#000" stroke-opacity="0" fill="#fff" fill-opacity="0"/><use xlink:href="#n" transform="matrix(1,0,0,1,1835.460838510313,414.7614350422723) translate(0 30.27777777777778)"/><path d="M1810.66 559.96c0 8.34-6.76 15.1-15.1 15.1s-15.1-6.76-15.1-15.1 6.76-15.1 15.1-15.1 15.1 6.76 15.1 15.1z" stroke="#3a414a" fill="#fff7a1"/><use xlink:href="#j" transform="matrix(1,0,0,1,1785.460838510313,549.8626564737303) translate(3.0925925925925934 17.77777777777778)"/><path d="M1830.46 535.76a6 6 0 0 1 6-6h178a6 6 0 0 1 6 6v48a6 6 0 0 1-6 6h-178a6 6 0 0 1-6-6z" stroke="#000" stroke-opacity="0" fill="#fff" fill-opacity="0"/><use xlink:href="#o" transform="matrix(1,0,0,1,1835.460838510313,534.7614350422723) translate(0 30.27777777777778)"/><use xlink:href="#p" transform="matrix(1,0,0,1,1835.460838510313,534.7614350422723) translate(93.76543209876543 30.27777777777778)"/><path d="M1773.34 614.1a6 6 0 0 1 6-6h32.44a6 6 0 0 1 6 6v68a6 6 0 0 1-6 6h-32.44a6 6 0 0 1-6-6z" stroke="#3a414a" fill="#e3fae3"/><path d="M1830.46 595.76a6 6 0 0 1 6-6h218a6 6 0 0 1 6 6v104.67a6 6 0 0 1-6 6h-218a6 6 0 0 1-6-6z" stroke="#000" stroke-opacity="0" fill="#fff" fill-opacity="0"/><use xlink:href="#q" transform="matrix(1,0,0,1,1835.460838510313,594.7614350422722) translate(0 31.15277777777778)"/><use xlink:href="#r" transform="matrix(1,0,0,1,1835.460838510313,594.7614350422722) translate(34.50617283950617 31.15277777777778)"/><use xlink:href="#s" transform="matrix(1,0,0,1,1835.460838510313,594.7614350422722) translate(0 57.81944444444445)"/><use xlink:href="#t" transform="matrix(1,0,0,1,1835.460838510313,594.7614350422722) translate(0 84.48611111111111)"/><use xlink:href="#u" transform="matrix(1,0,0,1,1835.460838510313,594.7614350422722) translate(62.96296296296296 84.48611111111111)"/><path d="M1800.2 722.1a6 6 0 0 1 6-6h5.58a6 6 0 0 1 6 6v68a6 6 0 0 1-6 6h-5.58a6 6 0 0 1-6-6z" stroke="#3a414a" fill="#fcfcca"/><path d="M1830.46 732.84a6 6 0 0 1 6-6h178a6 6 0 0 1 6 6v48a6 6 0 0 1-6 6h-178a6 6 0 0 1-6-6z" stroke="#000" stroke-opacity="0" fill="#fff" fill-opacity="0"/><use xlink:href="#v" transform="matrix(1,0,0,1,1835.460838510313,731.8420200733176) translate(0 30.27777777777778)"/><path d="M1740 826.44a6 6 0 0 1 6-6h65.78a6 6 0 0 1 6 6v26.9a6 6 0 0 1-6 6H1746a6 6 0 0 1-6-6z" stroke="#3a414a" fill="#dedeff"/><use xlink:href="#w" transform="matrix(1,0,0,1,1752,832.4384199091458) translate(6.259259259259267 12.444444444444441)"/><path d="M1830.46 814.22a6 6 0 0 1 6-6h188a6 6 0 0 1 6 6v51.33a6 6 0 0 1-6 6h-188a6 6 0 0 1-6-6z" stroke="#000" stroke-opacity="0" fill="#fff" fill-opacity="0"/><use xlink:href="#x" transform="matrix(1,0,0,1,1835.460838510313,813.2166262074771) translate(0 17.77777777777778)"/><use xlink:href="#y" transform="matrix(1,0,0,1,1835.460838510313,813.2166262074771) translate(70.30864197530863 17.77777777777778)"/><use xlink:href="#z" transform="matrix(1,0,0,1,1835.460838510313,813.2166262074771) translate(0 44.44444444444444)"/><use xlink:href="#A" transform="matrix(1,0,0,1,1835.460838510313,813.2166262074771) translate(87.46913580246913 44.44444444444444)"/><path d="M167.33 366.2a6 6 0 0 1-6-6v-97.72a6 6 0 0 1 6-6h35.34a6 6 0 0 1 6 6v97.72a6 6 0 0 1-6 6z" stroke="#000" stroke-opacity="0" fill="#fff" fill-opacity="0"/><use xlink:href="#B" transform="matrix(6.123233995736766e-17,-1,1,6.123233995736766e-17,166.33333333333331,361.20313466004035) translate(0.1790123456790269 21.944444444444443)"/><use xlink:href="#C" transform="matrix(6.123233995736766e-17,-1,1,6.123233995736766e-17,166.33333333333331,361.20313466004035) translate(21.78395061728396 21.944444444444443)"/><use xlink:href="#D" transform="matrix(6.123233995736766e-17,-1,1,6.123233995736766e-17,166.33333333333331,361.20313466004035) translate(33.88271604938272 21.944444444444443)"/><use xlink:href="#C" transform="matrix(6.123233995736766e-17,-1,1,6.123233995736766e-17,166.33333333333331,361.20313466004035) translate(62.96296296296296 21.944444444444443)"/><use xlink:href="#E" transform="matrix(6.123233995736766e-17,-1,1,6.123233995736766e-17,166.33333333333331,361.20313466004035) translate(75.06172839506172 21.944444444444443)"/><path d="M167.33 504.62a6 6 0 0 1-6-6V400.9a6 6 0 0 1 6-6h35.34a6 6 0 0 1 6 6v97.72a6 6 0 0 1-6 6z" stroke="#000" stroke-opacity="0" fill="#fff" fill-opacity="0"/><use xlink:href="#F" transform="matrix(6.123233995736766e-17,-1,1,6.123233995736766e-17,166.33333333333331,499.62409151600275) translate(3.333333333333343 21.944444444444443)"/><use xlink:href="#C" transform="matrix(6.123233995736766e-17,-1,1,6.123233995736766e-17,166.33333333333331,499.62409151600275) translate(33.58024691358025 21.944444444444443)"/><use xlink:href="#G" transform="matrix(6.123233995736766e-17,-1,1,6.123233995736766e-17,166.33333333333331,499.62409151600275) translate(45.67901234567901 21.944444444444443)"/><use xlink:href="#C" transform="matrix(6.123233995736766e-17,-1,1,6.123233995736766e-17,166.33333333333331,499.62409151600275) translate(67.28395061728395 21.944444444444443)"/><use xlink:href="#H" transform="matrix(6.123233995736766e-17,-1,1,6.123233995736766e-17,166.33333333333331,499.62409151600275) translate(79.38271604938271 21.944444444444443)"/><g><path d="M167.33 667.88a6 6 0 0 1-6-6v-97.73a6 6 0 0 1 6-6h35.34a6 6 0 0 1 6 6v97.73a6 6 0 0 1-6 6z" stroke="#000" stroke-opacity="0" fill="#fff" fill-opacity="0"/></g><g><use xlink:href="#I" transform="matrix(6.123233995736766e-17,-1,1,6.123233995736766e-17,166.33333333333343,662.8768398749614) translate(3.333333333333343 21.944444444444443)"/><use xlink:href="#C" transform="matrix(6.123233995736766e-17,-1,1,6.123233995736766e-17,166.33333333333343,662.8768398749614) translate(33.58024691358025 21.944444444444443)"/><use xlink:href="#J" transform="matrix(6.123233995736766e-17,-1,1,6.123233995736766e-17,166.33333333333343,662.8768398749614) translate(45.67901234567901 21.944444444444443)"/><use xlink:href="#C" transform="matrix(6.123233995736766e-17,-1,1,6.123233995736766e-17,166.33333333333343,662.8768398749614) translate(67.28395061728395 21.944444444444443)"/><use xlink:href="#K" transform="matrix(6.123233995736766e-17,-1,1,6.123233995736766e-17,166.33333333333343,662.8768398749614) translate(79.38271604938271 21.944444444444443)"/></g><g><path d="M167.33 878.06a6 6 0 0 1-6-6V763.42a6 6 0 0 1 6-6h35.34a6 6 0 0 1 6 6v108.64a6 6 0 0 1-6 6z" stroke="#000" stroke-opacity="0" fill="#fff" fill-opacity="0"/></g><g><use xlink:href="#L" transform="matrix(6.123233995736766e-17,-1,1,6.123233995736766e-17,166.33333333333337,873.0581129101836) translate(4.5123456790123555 21.944444444444443)"/><use xlink:href="#C" transform="matrix(6.123233995736766e-17,-1,1,6.123233995736766e-17,166.33333333333337,873.0581129101836) translate(43.401234567901234 21.944444444444443)"/><use xlink:href="#M" transform="matrix(6.123233995736766e-17,-1,1,6.123233995736766e-17,166.33333333333337,873.0581129101836) translate(55.5 21.944444444444443)"/><use xlink:href="#C" transform="matrix(6.123233995736766e-17,-1,1,6.123233995736766e-17,166.33333333333337,873.0581129101836) translate(77.10493827160494 21.944444444444443)"/><use xlink:href="#N" transform="matrix(6.123233995736766e-17,-1,1,6.123233995736766e-17,166.33333333333337,873.0581129101836) translate(89.2037037037037 21.944444444444443)"/></g><g><path d="M167.33 1015.18a6 6 0 0 1-6-6V900.54a6 6 0 0 1 6-6h35.34a6 6 0 0 1 6 6v108.64a6 6 0 0 1-6 6z" stroke="#000" stroke-opacity="0" fill="#fff" fill-opacity="0"/></g><g><use xlink:href="#O" transform="matrix(6.123233995736766e-17,-1,1,6.123233995736766e-17,166.33333333333337,1010.1821783936258) translate(13.15432098765433 21.944444444444443)"/><use xlink:href="#C" transform="matrix(6.123233995736766e-17,-1,1,6.123233995736766e-17,166.33333333333337,1010.1821783936258) translate(52.04320987654321 21.944444444444443)"/><use xlink:href="#P" transform="matrix(6.123233995736766e-17,-1,1,6.123233995736766e-17,166.33333333333337,1010.1821783936258) translate(64.14197530864197 21.944444444444443)"/><use xlink:href="#C" transform="matrix(6.123233995736766e-17,-1,1,6.123233995736766e-17,166.33333333333337,1010.1821783936258) translate(77.10493827160494 21.944444444444443)"/><use xlink:href="#Q" transform="matrix(6.123233995736766e-17,-1,1,6.123233995736766e-17,166.33333333333337,1010.1821783936258) translate(89.2037037037037 21.944444444444443)"/></g><path d="M887.15 823.1a6 6 0 0 1 6-6h97.73a6 6 0 0 1 6 6v35.33a6 6 0 0 1-6 6h-97.73a6 6 0 0 1-6-6z" stroke="#000" stroke-opacity="0" fill="#fff" fill-opacity="0"/><g><use xlink:href="#R" transform="matrix(1,0,0,1,892.1527627449814,822.0960539372663) translate(3.333333333333343 21.944444444444443)"/><use xlink:href="#C" transform="matrix(1,0,0,1,892.1527627449814,822.0960539372663) translate(33.58024691358025 21.944444444444443)"/><use xlink:href="#M" transform="matrix(1,0,0,1,892.1527627449814,822.0960539372663) translate(45.67901234567901 21.944444444444443)"/><use xlink:href="#C" transform="matrix(1,0,0,1,892.1527627449814,822.0960539372663) translate(67.28395061728395 21.944444444444443)"/><use xlink:href="#N" transform="matrix(1,0,0,1,892.1527627449814,822.0960539372663) translate(79.38271604938271 21.944444444444443)"/></g><path d="M1168.56 619.2a6 6 0 0 1 6-6h97.73a6 6 0 0 1 6 6v35.33a6 6 0 0 1-6 6h-97.74a6 6 0 0 1-6-6z" stroke="#000" stroke-opacity="0" fill="#fff" fill-opacity="0"/><g><use xlink:href="#R" transform="matrix(1,0,0,1,1173.5638136356429,618.1959898070636) translate(3.333333333333343 21.944444444444443)"/><use xlink:href="#C" transform="matrix(1,0,0,1,1173.5638136356429,618.1959898070636) translate(33.58024691358025 21.944444444444443)"/><use xlink:href="#J" transform="matrix(1,0,0,1,1173.5638136356429,618.1959898070636) translate(45.67901234567901 21.944444444444443)"/><use xlink:href="#C" transform="matrix(1,0,0,1,1173.5638136356429,618.1959898070636) translate(67.28395061728395 21.944444444444443)"/><use xlink:href="#K" transform="matrix(1,0,0,1,1173.5638136356429,618.1959898070636) translate(79.38271604938271 21.944444444444443)"/></g><path d="M1402.72 415.76a6 6 0 0 1 6-6h32.44a6 6 0 0 1 6 6v68a6 6 0 0 1-6 6h-32.44a6 6 0 0 1-6-6z" stroke="#3a414a" fill="#c3f7c8"/><path d="M1447.16 455.94a6 6 0 0 1 6-6h97.72a6 6 0 0 1 6 6v35.34a6 6 0 0 1-6 6h-97.72a6 6 0 0 1-6-6z" stroke="#000" stroke-opacity="0" fill="#fff" fill-opacity="0"/><g><use xlink:href="#R" transform="matrix(1,0,0,1,1452.157925267964,454.94324144810486) translate(3.333333333333343 21.944444444444443)"/><use xlink:href="#C" transform="matrix(1,0,0,1,1452.157925267964,454.94324144810486) translate(33.58024691358025 21.944444444444443)"/><use xlink:href="#G" transform="matrix(1,0,0,1,1452.157925267964,454.94324144810486) translate(45.67901234567901 21.944444444444443)"/><use xlink:href="#C" transform="matrix(1,0,0,1,1452.157925267964,454.94324144810486) translate(67.28395061728395 21.944444444444443)"/><use xlink:href="#H" transform="matrix(1,0,0,1,1452.157925267964,454.94324144810486) translate(79.38271604938271 21.944444444444443)"/></g><path d="M1742.42 320.86a6 6 0 0 1 6-6h108a6 6 0 0 1 6 6v35.34a6 6 0 0 1-6 6h-108a6 6 0 0 1-6-6z" stroke="#000" stroke-opacity="0" fill="#fff" fill-opacity="0"/><g><use xlink:href="#R" transform="matrix(1,0,0,1,1747.4226703402805,319.8626564737304) translate(1.3580246913580396 21.944444444444443)"/><use xlink:href="#C" transform="matrix(1,0,0,1,1747.4226703402805,319.8626564737304) translate(31.604938271604944 21.944444444444443)"/><use xlink:href="#D" transform="matrix(1,0,0,1,1747.4226703402805,319.8626564737304) translate(43.70370370370371 21.944444444444443)"/><use xlink:href="#C" transform="matrix(1,0,0,1,1747.4226703402805,319.8626564737304) translate(72.78395061728395 21.944444444444443)"/><use xlink:href="#E" transform="matrix(1,0,0,1,1747.4226703402805,319.8626564737304) translate(84.88271604938271 21.944444444444443)"/></g><g><path d="M167.33 209.73a6 6 0 0 1-6-6V106a6 6 0 0 1 6-6h35.34a6 6 0 0 1 6 6v97.73a6 6 0 0 1-6 6z" stroke="#000" stroke-opacity="0" fill="#fff" fill-opacity="0"/></g><g><use xlink:href="#S" transform="matrix(6.123233995736766e-17,-1,1,6.123233995736766e-17,166.3333333333333,204.72531294746076) translate(3.333333333333343 21.944444444444443)"/><use xlink:href="#C" transform="matrix(6.123233995736766e-17,-1,1,6.123233995736766e-17,166.3333333333333,204.72531294746076) translate(16.2962962962963 21.944444444444443)"/><use xlink:href="#T" transform="matrix(6.123233995736766e-17,-1,1,6.123233995736766e-17,166.3333333333333,204.72531294746076) translate(28.395061728395063 21.944444444444443)"/><use xlink:href="#C" transform="matrix(6.123233995736766e-17,-1,1,6.123233995736766e-17,166.3333333333333,204.72531294746076) translate(58.64197530864197 21.944444444444443)"/><use xlink:href="#U" transform="matrix(6.123233995736766e-17,-1,1,6.123233995736766e-17,166.3333333333333,204.72531294746076) translate(70.74074074074073 21.944444444444443)"/></g><path d="M1865.35 193.53a6 6 0 0 1 6-6h157.77a6 6 0 0 1 6 6v35.33a6 6 0 0 1-6 6h-157.77a6 6 0 0 1-6-6z" stroke="#000" stroke-opacity="0" fill="#fff" fill-opacity="0"/><g><use xlink:href="#V" transform="matrix(1,0,0,1,1870.3456288827347,192.52932314039705) translate(5.268518518518533 21.944444444444443)"/><use xlink:href="#W" transform="matrix(1,0,0,1,1870.3456288827347,192.52932314039705) translate(18.23148148148149 21.944444444444443)"/><use xlink:href="#C" transform="matrix(1,0,0,1,1870.3456288827347,192.52932314039705) translate(74.36111111111111 21.944444444444443)"/><use xlink:href="#T" transform="matrix(1,0,0,1,1870.3456288827347,192.52932314039705) translate(86.45987654320987 21.944444444444443)"/><use xlink:href="#C" transform="matrix(1,0,0,1,1870.3456288827347,192.52932314039705) translate(116.70679012345678 21.944444444444443)"/><use xlink:href="#U" transform="matrix(1,0,0,1,1870.3456288827347,192.52932314039705) translate(128.80555555555554 21.944444444444443)"/></g><defs><path fill="#3a414a" d="M30 0v-248h187v28H63v79h144v27H63v87h162V0H30" id="X"/><path fill="#3a414a" d="M190 0L58-211 59 0H30v-248h39L202-35l-2-213h31V0h-41" id="Y"/><path fill="#3a414a" d="M212-179c-10-28-35-45-73-45-59 0-87 40-87 99 0 60 29 101 89 101 43 0 62-24 78-52l27 14C228-24 195 4 139 4 59 4 22-46 18-125c-6-104 99-153 187-111 19 9 31 26 39 46" id="Z"/><path fill="#3a414a" d="M140-251c81 0 123 46 123 126C263-46 219 4 140 4 59 4 17-45 17-125s42-126 123-126zm0 227c63 0 89-41 89-101s-29-99-89-99c-61 0-89 39-89 99S79-25 140-24" id="aa"/><path fill="#3a414a" d="M30-248c118-7 216 8 213 122C240-48 200 0 122 0H30v-248zM63-27c89 8 146-16 146-99s-60-101-146-95v194" id="ab"/><path fill="#3a414a" d="M233-177c-1 41-23 64-60 70L243 0h-38l-65-103H63V0H30v-248c88 3 205-21 203 71zM63-129c60-2 137 13 137-47 0-61-80-42-137-45v92" id="ac"/><g id="a"><use transform="matrix(0.06172839506172839,0,0,0.06172839506172839,0,0)" xlink:href="#X"/><use transform="matrix(0.06172839506172839,0,0,0.06172839506172839,14.814814814814813,0)" xlink:href="#Y"/><use transform="matrix(0.06172839506172839,0,0,0.06172839506172839,30.80246913580247,0)" xlink:href="#Z"/><use transform="matrix(0.06172839506172839,0,0,0.06172839506172839,46.79012345679012,0)" xlink:href="#aa"/><use transform="matrix(0.06172839506172839,0,0,0.06172839506172839,64.07407407407408,0)" xlink:href="#ab"/><use transform="matrix(0.06172839506172839,0,0,0.06172839506172839,80.06172839506173,0)" xlink:href="#X"/><use transform="matrix(0.06172839506172839,0,0,0.06172839506172839,94.87654320987654,0)" xlink:href="#ac"/></g><path fill="#3a414a" d="M33 0v-248h34V0H33" id="ad"/><path fill="#3a414a" d="M30-248c87 1 191-15 191 75 0 78-77 80-158 76V0H30v-248zm33 125c57 0 124 11 124-50 0-59-68-47-124-48v98" id="ae"/><path fill="#3a414a" d="M232-93c-1 65-40 97-104 97C67 4 28-28 28-90v-158h33c8 89-33 224 67 224 102 0 64-133 71-224h33v155" id="af"/><path fill="#3a414a" d="M127-220V0H93v-220H8v-28h204v28h-85" id="ag"/><g id="b"><use transform="matrix(0.06172839506172839,0,0,0.06172839506172839,0,0)" xlink:href="#ad"/><use transform="matrix(0.06172839506172839,0,0,0.06172839506172839,6.172839506172839,0)" xlink:href="#Y"/><use transform="matrix(0.06172839506172839,0,0,0.06172839506172839,22.160493827160494,0)" xlink:href="#ae"/><use transform="matrix(0.06172839506172839,0,0,0.06172839506172839,36.9753086419753,0)" xlink:href="#af"/><use transform="matrix(0.06172839506172839,0,0,0.06172839506172839,52.962962962962955,0)" xlink:href="#ag"/></g><path fill="#3a414a" d="M160-131c35 5 61 23 61 61C221 17 115-2 30 0v-248c76 3 177-17 177 60 0 33-19 50-47 57zm-97-11c50-1 110 9 110-42 0-47-63-36-110-37v79zm0 115c55-2 124 14 124-45 0-56-70-42-124-44v89" id="ah"/><path fill="#3a414a" d="M30 0v-248h33v221h125V0H30" id="ai"/><path fill="#3a414a" d="M194 0L95-120 63-95V0H30v-248h33v124l119-124h40L117-140 236 0h-42" id="aj"/><g id="c"><use transform="matrix(0.06172839506172839,0,0,0.06172839506172839,0,0)" xlink:href="#ah"/><use transform="matrix(0.06172839506172839,0,0,0.06172839506172839,14.814814814814813,0)" xlink:href="#ai"/><use transform="matrix(0.06172839506172839,0,0,0.06172839506172839,27.160493827160494,0)" xlink:href="#aa"/><use transform="matrix(0.06172839506172839,0,0,0.06172839506172839,44.44444444444444,0)" xlink:href="#Z"/><use transform="matrix(0.06172839506172839,0,0,0.06172839506172839,60.432098765432094,0)" xlink:href="#aj"/></g><path fill="#3a414a" d="M27 0v-27h64v-190l-56 39v-29l58-41h29v221h61V0H27" id="ak"/><use transform="matrix(0.06172839506172839,0,0,0.06172839506172839,0,0)" xlink:href="#ak" id="d"/><path fill="#3a414a" d="M101-251c82-7 93 87 43 132L82-64C71-53 59-42 53-27h129V0H18c2-99 128-94 128-182 0-28-16-43-45-43s-46 15-49 41l-32-3c6-41 34-60 81-64" id="al"/><use transform="matrix(0.06172839506172839,0,0,0.06172839506172839,0,0)" xlink:href="#al" id="e"/><path fill="#3a414a" d="M155-56V0h-30v-56H8v-25l114-167h33v167h35v25h-35zm-30-156c-27 46-58 90-88 131h88v-131" id="am"/><use transform="matrix(0.06172839506172839,0,0,0.06172839506172839,0,0)" xlink:href="#am" id="f"/><path fill="#3a414a" d="M126-127c33 6 58 20 58 59 0 88-139 92-164 29-3-8-5-16-6-25l32-3c6 27 21 44 54 44 32 0 52-15 52-46 0-38-36-46-79-43v-28c39 1 72-4 72-42 0-27-17-43-46-43-28 0-47 15-49 41l-32-3c6-42 35-63 81-64 48-1 79 21 79 65 0 36-21 52-52 59" id="an"/><use transform="matrix(0.06172839506172839,0,0,0.06172839506172839,0,0)" xlink:href="#an" id="g"/><path fill="#3a414a" d="M143 4C61 4 22-44 18-125c-5-107 100-154 193-111 17 8 29 25 37 43l-32 9c-13-25-37-40-76-40-61 0-88 39-88 99 0 61 29 100 91 101 35 0 62-11 79-27v-45h-74v-28h105v86C228-13 192 4 143 4" id="ao"/><g id="h"><use transform="matrix(0.06172839506172839,0,0,0.06172839506172839,0,0)" xlink:href="#ah"/><use transform="matrix(0.06172839506172839,0,0,0.06172839506172839,14.814814814814813,0)" xlink:href="#ac"/><use transform="matrix(0.06172839506172839,0,0,0.06172839506172839,30.80246913580247,0)" xlink:href="#ad"/><use transform="matrix(0.06172839506172839,0,0,0.06172839506172839,36.97530864197531,0)" xlink:href="#ab"/><use transform="matrix(0.06172839506172839,0,0,0.06172839506172839,52.96296296296296,0)" xlink:href="#ao"/><use transform="matrix(0.06172839506172839,0,0,0.06172839506172839,70.24691358024691,0)" xlink:href="#X"/></g><path fill="#3a414a" d="M205 0l-28-72H64L36 0H1l101-248h38L239 0h-34zm-38-99l-47-123c-12 45-31 82-46 123h93" id="ap"/><path fill="#3a414a" d="M185-189c-5-48-123-54-124 2 14 75 158 14 163 119 3 78-121 87-175 55-17-10-28-26-33-46l33-7c5 56 141 63 141-1 0-78-155-14-162-118-5-82 145-84 179-34 5 7 8 16 11 25" id="aq"/><g id="i"><use transform="matrix(0.06172839506172839,0,0,0.06172839506172839,0,0)" xlink:href="#ap"/><use transform="matrix(0.06172839506172839,0,0,0.06172839506172839,14.814814814814813,0)" xlink:href="#aq"/><use transform="matrix(0.06172839506172839,0,0,0.06172839506172839,29.629629629629626,0)" xlink:href="#ae"/><use transform="matrix(0.06172839506172839,0,0,0.06172839506172839,44.44444444444444,0)" xlink:href="#ae"/></g><use transform="matrix(0.06172839506172839,0,0,0.06172839506172839,0,0)" xlink:href="#ap" id="j"/><path fill="#3a414a" d="M100-194c62-1 85 37 85 99 1 63-27 99-86 99S16-35 15-95c0-66 28-99 85-99zM99-20c44 1 53-31 53-75 0-43-8-75-51-75s-53 32-53 75 10 74 51 75" id="ar"/><path fill="#3a414a" d="M117-194c89-4 53 116 60 194h-32v-121c0-31-8-49-39-48C34-167 62-67 57 0H25l-1-190h30c1 10-1 24 2 32 11-22 29-35 61-36" id="as"/><path fill="#3a414a" d="M96-169c-40 0-48 33-48 73s9 75 48 75c24 0 41-14 43-38l32 2c-6 37-31 61-74 61-59 0-76-41-82-99-10-93 101-131 147-64 4 7 5 14 7 22l-32 3c-4-21-16-35-41-35" id="at"/><path fill="#3a414a" d="M141-36C126-15 110 5 73 4 37 3 15-17 15-53c-1-64 63-63 125-63 3-35-9-54-41-54-24 1-41 7-42 31l-33-3c5-37 33-52 76-52 45 0 72 20 72 64v82c-1 20 7 32 28 27v20c-31 9-61-2-59-35zM48-53c0 20 12 33 32 33 41-3 63-29 60-74-43 2-92-5-92 41" id="au"/><path fill="#3a414a" d="M59-47c-2 24 18 29 38 22v24C64 9 27 4 27-40v-127H5v-23h24l9-43h21v43h35v23H59v120" id="av"/><path fill="#3a414a" d="M100-194c63 0 86 42 84 106H49c0 40 14 67 53 68 26 1 43-12 49-29l28 8c-11 28-37 45-77 45C44 4 14-33 15-96c1-61 26-98 85-98zm52 81c6-60-76-77-97-28-3 7-6 17-6 28h103" id="aw"/><g id="k"><use transform="matrix(0.0493827160493827,0,0,0.0493827160493827,0,0)" xlink:href="#Z"/><use transform="matrix(0.0493827160493827,0,0,0.0493827160493827,12.79012345679012,0)" xlink:href="#ar"/><use transform="matrix(0.0493827160493827,0,0,0.0493827160493827,22.666666666666657,0)" xlink:href="#as"/><use transform="matrix(0.0493827160493827,0,0,0.0493827160493827,32.543209876543195,0)" xlink:href="#at"/><use transform="matrix(0.0493827160493827,0,0,0.0493827160493827,41.43209876543208,0)" xlink:href="#au"/><use transform="matrix(0.0493827160493827,0,0,0.0493827160493827,51.30864197530861,0)" xlink:href="#av"/><use transform="matrix(0.0493827160493827,0,0,0.0493827160493827,56.2469135802469,0)" xlink:href="#aw"/><use transform="matrix(0.0493827160493827,0,0,0.0493827160493827,66.12345679012343,0)" xlink:href="#as"/><use transform="matrix(0.0493827160493827,0,0,0.0493827160493827,75.99999999999997,0)" xlink:href="#au"/><use transform="matrix(0.0493827160493827,0,0,0.0493827160493827,85.87654320987652,0)" xlink:href="#av"/><use transform="matrix(0.0493827160493827,0,0,0.0493827160493827,90.81481481481478,0)" xlink:href="#aw"/></g><g id="l"><use transform="matrix(0.06172839506172839,0,0,0.06172839506172839,0,0)" xlink:href="#aa"/><use transform="matrix(0.06172839506172839,0,0,0.06172839506172839,17.28395061728395,0)" xlink:href="#af"/><use transform="matrix(0.06172839506172839,0,0,0.06172839506172839,33.2716049382716,0)" xlink:href="#ag"/><use transform="matrix(0.06172839506172839,0,0,0.06172839506172839,46.79012345679012,0)" xlink:href="#ae"/><use transform="matrix(0.06172839506172839,0,0,0.06172839506172839,61.60493827160494,0)" xlink:href="#af"/><use transform="matrix(0.06172839506172839,0,0,0.06172839506172839,77.5925925925926,0)" xlink:href="#ag"/></g><path fill="#3a414a" d="M115-194c55 1 70 41 70 98S169 2 115 4C84 4 66-9 55-30l1 105H24l-1-265h31l2 30c10-21 28-34 59-34zm-8 174c40 0 45-34 45-75s-6-73-45-74c-42 0-51 32-51 76 0 43 10 73 51 73" id="ax"/><path fill="#3a414a" d="M135-143c-3-34-86-38-87 0 15 53 115 12 119 90S17 21 10-45l28-5c4 36 97 45 98 0-10-56-113-15-118-90-4-57 82-63 122-42 12 7 21 19 24 35" id="ay"/><path fill="#3a414a" d="M210-169c-67 3-38 105-44 169h-31v-121c0-29-5-50-35-48C34-165 62-65 56 0H25l-1-190h30c1 10-1 24 2 32 10-44 99-50 107 0 11-21 27-35 58-36 85-2 47 119 55 194h-31v-121c0-29-5-49-35-48" id="az"/><path fill="#3a414a" d="M24 0v-261h32V0H24" id="aA"/><g id="m"><use transform="matrix(0.06172839506172839,0,0,0.06172839506172839,0,0)" xlink:href="#af"/><use transform="matrix(0.06172839506172839,0,0,0.06172839506172839,15.987654320987653,0)" xlink:href="#ax"/><use transform="matrix(0.06172839506172839,0,0,0.06172839506172839,28.333333333333332,0)" xlink:href="#ay"/><use transform="matrix(0.06172839506172839,0,0,0.06172839506172839,39.44444444444444,0)" xlink:href="#au"/><use transform="matrix(0.06172839506172839,0,0,0.06172839506172839,51.79012345679012,0)" xlink:href="#az"/><use transform="matrix(0.06172839506172839,0,0,0.06172839506172839,70.24691358024691,0)" xlink:href="#ax"/><use transform="matrix(0.06172839506172839,0,0,0.06172839506172839,82.5925925925926,0)" xlink:href="#aA"/><use transform="matrix(0.06172839506172839,0,0,0.06172839506172839,87.46913580246914,0)" xlink:href="#aw"/></g><path fill="#3a414a" d="M24-231v-30h32v30H24zM24 0v-190h32V0H24" id="aB"/><path fill="#3a414a" d="M177-190C167-65 218 103 67 71c-23-6-38-20-44-43l32-5c15 47 100 32 89-28v-30C133-14 115 1 83 1 29 1 15-40 15-95c0-56 16-97 71-98 29-1 48 16 59 35 1-10 0-23 2-32h30zM94-22c36 0 50-32 50-73 0-42-14-75-50-75-39 0-46 34-46 75s6 73 46 73" id="aC"/><g id="n"><use transform="matrix(0.06172839506172839,0,0,0.06172839506172839,0,0)" xlink:href="#ae"/><use transform="matrix(0.06172839506172839,0,0,0.06172839506172839,14.814814814814813,0)" xlink:href="#ar"/><use transform="matrix(0.06172839506172839,0,0,0.06172839506172839,27.160493827160494,0)" xlink:href="#ar"/><use transform="matrix(0.06172839506172839,0,0,0.06172839506172839,39.50617283950617,0)" xlink:href="#aA"/><use transform="matrix(0.06172839506172839,0,0,0.06172839506172839,44.382716049382715,0)" xlink:href="#aB"/><use transform="matrix(0.06172839506172839,0,0,0.06172839506172839,49.25925925925926,0)" xlink:href="#as"/><use transform="matrix(0.06172839506172839,0,0,0.06172839506172839,61.60493827160494,0)" xlink:href="#aC"/></g><g id="o"><use transform="matrix(0.06172839506172839,0,0,0.06172839506172839,0,0)" xlink:href="#ap"/><use transform="matrix(0.06172839506172839,0,0,0.06172839506172839,14.814814814814813,0)" xlink:href="#av"/><use transform="matrix(0.06172839506172839,0,0,0.06172839506172839,20.98765432098765,0)" xlink:href="#av"/><use transform="matrix(0.06172839506172839,0,0,0.06172839506172839,27.16049382716049,0)" xlink:href="#aw"/><use transform="matrix(0.06172839506172839,0,0,0.06172839506172839,39.50617283950617,0)" xlink:href="#as"/><use transform="matrix(0.06172839506172839,0,0,0.06172839506172839,51.85185185185185,0)" xlink:href="#av"/><use transform="matrix(0.06172839506172839,0,0,0.06172839506172839,58.02469135802469,0)" xlink:href="#aB"/><use transform="matrix(0.06172839506172839,0,0,0.06172839506172839,62.901234567901234,0)" xlink:href="#ar"/><use transform="matrix(0.06172839506172839,0,0,0.06172839506172839,75.24691358024691,0)" xlink:href="#as"/></g><path fill="#3a414a" d="M115-194c53 0 69 39 70 98 0 66-23 100-70 100C84 3 66-7 56-30L54 0H23l1-261h32v101c10-23 28-34 59-34zm-8 174c40 0 45-34 45-75 0-40-5-75-45-74-42 0-51 32-51 76 0 43 10 73 51 73" id="aD"/><path fill="#3a414a" d="M143 0L79-87 56-68V0H24v-261h32v163l83-92h37l-77 82L181 0h-38" id="aE"/><g id="p"><use transform="matrix(0.06172839506172839,0,0,0.06172839506172839,0,0)" xlink:href="#aD"/><use transform="matrix(0.06172839506172839,0,0,0.06172839506172839,12.345679012345679,0)" xlink:href="#aA"/><use transform="matrix(0.06172839506172839,0,0,0.06172839506172839,17.22222222222222,0)" xlink:href="#ar"/><use transform="matrix(0.06172839506172839,0,0,0.06172839506172839,29.5679012345679,0)" xlink:href="#at"/><use transform="matrix(0.06172839506172839,0,0,0.06172839506172839,40.67901234567901,0)" xlink:href="#aE"/></g><g id="q"><use transform="matrix(0.06172839506172839,0,0,0.06172839506172839,0,0)" xlink:href="#al"/><use transform="matrix(0.06172839506172839,0,0,0.06172839506172839,12.345679012345679,0)" xlink:href="#ab"/></g><path fill="#3a414a" d="M108 0H70L1-190h34L89-25l56-165h34" id="aF"/><path fill="#3a414a" d="M84 4C-5 8 30-112 23-190h32v120c0 31 7 50 39 49 72-2 45-101 50-169h31l1 190h-30c-1-10 1-25-2-33-11 22-28 36-60 37" id="aG"/><g id="r"><use transform="matrix(0.06172839506172839,0,0,0.06172839506172839,0,0)" xlink:href="#Z"/><use transform="matrix(0.06172839506172839,0,0,0.06172839506172839,15.987654320987653,0)" xlink:href="#ar"/><use transform="matrix(0.06172839506172839,0,0,0.06172839506172839,28.333333333333332,0)" xlink:href="#as"/><use transform="matrix(0.06172839506172839,0,0,0.06172839506172839,40.67901234567901,0)" xlink:href="#aF"/><use transform="matrix(0.06172839506172839,0,0,0.06172839506172839,51.79012345679013,0)" xlink:href="#ar"/><use transform="matrix(0.06172839506172839,0,0,0.06172839506172839,64.13580246913581,0)" xlink:href="#aA"/><use transform="matrix(0.06172839506172839,0,0,0.06172839506172839,69.01234567901236,0)" xlink:href="#aG"/><use transform="matrix(0.06172839506172839,0,0,0.06172839506172839,81.35802469135804,0)" xlink:href="#av"/><use transform="matrix(0.06172839506172839,0,0,0.06172839506172839,87.53086419753087,0)" xlink:href="#aB"/><use transform="matrix(0.06172839506172839,0,0,0.06172839506172839,92.40740740740742,0)" xlink:href="#ar"/><use transform="matrix(0.06172839506172839,0,0,0.06172839506172839,104.7530864197531,0)" xlink:href="#as"/></g><path fill="#3a414a" d="M240 0l2-218c-23 76-54 145-80 218h-23L58-218 59 0H30v-248h44l77 211c21-75 51-140 76-211h43V0h-30" id="aH"/><path fill="#3a414a" d="M106-169C34-169 62-67 57 0H25v-261h32l-1 103c12-21 28-36 61-36 89 0 53 116 60 194h-32v-121c2-32-8-49-39-48" id="aI"/><g id="s"><use transform="matrix(0.06172839506172839,0,0,0.06172839506172839,0,0)" xlink:href="#aH"/><use transform="matrix(0.06172839506172839,0,0,0.06172839506172839,18.456790123456788,0)" xlink:href="#aB"/><use transform="matrix(0.06172839506172839,0,0,0.06172839506172839,23.33333333333333,0)" xlink:href="#ay"/><use transform="matrix(0.06172839506172839,0,0,0.06172839506172839,34.44444444444444,0)" xlink:href="#aI"/></g><g id="t"><use transform="matrix(0.06172839506172839,0,0,0.06172839506172839,0,0)" xlink:href="#ah"/><use transform="matrix(0.06172839506172839,0,0,0.06172839506172839,14.814814814814813,0)" xlink:href="#au"/><use transform="matrix(0.06172839506172839,0,0,0.06172839506172839,27.160493827160494,0)" xlink:href="#av"/><use transform="matrix(0.06172839506172839,0,0,0.06172839506172839,33.333333333333336,0)" xlink:href="#at"/><use transform="matrix(0.06172839506172839,0,0,0.06172839506172839,44.44444444444444,0)" xlink:href="#aI"/></g><path fill="#3a414a" d="M114-163C36-179 61-72 57 0H25l-1-190h30c1 12-1 29 2 39 6-27 23-49 58-41v29" id="aJ"/><path fill="#3a414a" d="M9 0v-24l116-142H16v-24h144v24L44-24h123V0H9" id="aK"/><g id="u"><use transform="matrix(0.06172839506172839,0,0,0.06172839506172839,0,0)" xlink:href="#as"/><use transform="matrix(0.06172839506172839,0,0,0.06172839506172839,12.345679012345679,0)" xlink:href="#ar"/><use transform="matrix(0.06172839506172839,0,0,0.06172839506172839,24.691358024691358,0)" xlink:href="#aJ"/><use transform="matrix(0.06172839506172839,0,0,0.06172839506172839,32.03703703703704,0)" xlink:href="#az"/><use transform="matrix(0.06172839506172839,0,0,0.06172839506172839,50.49382716049382,0)" xlink:href="#au"/><use transform="matrix(0.06172839506172839,0,0,0.06172839506172839,62.8395061728395,0)" xlink:href="#aA"/><use transform="matrix(0.06172839506172839,0,0,0.06172839506172839,67.71604938271604,0)" xlink:href="#aB"/><use transform="matrix(0.06172839506172839,0,0,0.06172839506172839,72.59259259259258,0)" xlink:href="#aK"/><use transform="matrix(0.06172839506172839,0,0,0.06172839506172839,83.7037037037037,0)" xlink:href="#au"/><use transform="matrix(0.06172839506172839,0,0,0.06172839506172839,96.04938271604938,0)" xlink:href="#av"/><use transform="matrix(0.06172839506172839,0,0,0.06172839506172839,102.22222222222221,0)" xlink:href="#aB"/><use transform="matrix(0.06172839506172839,0,0,0.06172839506172839,107.09876543209876,0)" xlink:href="#ar"/><use transform="matrix(0.06172839506172839,0,0,0.06172839506172839,119.44444444444444,0)" xlink:href="#as"/></g><path fill="#3a414a" d="M101-234c-31-9-42 10-38 44h38v23H63V0H32v-167H5v-23h27c-7-52 17-82 69-68v24" id="aL"/><path fill="#3a414a" d="M141 0L90-78 38 0H4l68-98-65-92h35l48 74 47-74h35l-64 92 68 98h-35" id="aM"/><g id="v"><use transform="matrix(0.06172839506172839,0,0,0.06172839506172839,0,0)" xlink:href="#aq"/><use transform="matrix(0.06172839506172839,0,0,0.06172839506172839,14.814814814814813,0)" xlink:href="#ar"/><use transform="matrix(0.06172839506172839,0,0,0.06172839506172839,27.160493827160494,0)" xlink:href="#aL"/><use transform="matrix(0.06172839506172839,0,0,0.06172839506172839,33.333333333333336,0)" xlink:href="#av"/><use transform="matrix(0.06172839506172839,0,0,0.06172839506172839,39.50617283950618,0)" xlink:href="#az"/><use transform="matrix(0.06172839506172839,0,0,0.06172839506172839,57.96296296296296,0)" xlink:href="#au"/><use transform="matrix(0.06172839506172839,0,0,0.06172839506172839,70.30864197530865,0)" xlink:href="#aM"/></g><g id="w"><use transform="matrix(0.04320987654320986,0,0,0.04320987654320986,0,0)" xlink:href="#ap"/><use transform="matrix(0.04320987654320986,0,0,0.04320987654320986,10.370370370370367,0)" xlink:href="#aq"/><use transform="matrix(0.04320987654320986,0,0,0.04320987654320986,20.740740740740733,0)" xlink:href="#ae"/><use transform="matrix(0.04320987654320986,0,0,0.04320987654320986,31.1111111111111,0)" xlink:href="#ae"/></g><g id="x"><use transform="matrix(0.06172839506172839,0,0,0.06172839506172839,0,0)" xlink:href="#ap"/><use transform="matrix(0.06172839506172839,0,0,0.06172839506172839,14.814814814814813,0)" xlink:href="#av"/><use transform="matrix(0.06172839506172839,0,0,0.06172839506172839,20.98765432098765,0)" xlink:href="#aJ"/><use transform="matrix(0.06172839506172839,0,0,0.06172839506172839,28.33333333333333,0)" xlink:href="#ar"/><use transform="matrix(0.06172839506172839,0,0,0.06172839506172839,40.679012345679006,0)" xlink:href="#aG"/><use transform="matrix(0.06172839506172839,0,0,0.06172839506172839,53.02469135802468,0)" xlink:href="#ay"/></g><g id="y"><use transform="matrix(0.06172839506172839,0,0,0.06172839506172839,0,0)" xlink:href="#aq"/><use transform="matrix(0.06172839506172839,0,0,0.06172839506172839,14.814814814814813,0)" xlink:href="#ax"/><use transform="matrix(0.06172839506172839,0,0,0.06172839506172839,27.160493827160494,0)" xlink:href="#au"/><use transform="matrix(0.06172839506172839,0,0,0.06172839506172839,39.50617283950617,0)" xlink:href="#av"/><use transform="matrix(0.06172839506172839,0,0,0.06172839506172839,45.67901234567901,0)" xlink:href="#aB"/><use transform="matrix(0.06172839506172839,0,0,0.06172839506172839,50.55555555555556,0)" xlink:href="#au"/><use transform="matrix(0.06172839506172839,0,0,0.06172839506172839,62.901234567901234,0)" xlink:href="#aA"/></g><path fill="#3a414a" d="M179-190L93 31C79 59 56 82 12 73V49c39 6 53-20 64-50L1-190h34L92-34l54-156h33" id="aN"/><path fill="#3a414a" d="M85-194c31 0 48 13 60 33l-1-100h32l1 261h-30c-2-10 0-23-3-31C134-8 116 4 85 4 32 4 16-35 15-94c0-66 23-100 70-100zm9 24c-40 0-46 34-46 75 0 40 6 74 45 74 42 0 51-32 51-76 0-42-9-74-50-73" id="aO"/><g id="z"><use transform="matrix(0.06172839506172839,0,0,0.06172839506172839,0,0)" xlink:href="#ae"/><use transform="matrix(0.06172839506172839,0,0,0.06172839506172839,14.814814814814813,0)" xlink:href="#aN"/><use transform="matrix(0.06172839506172839,0,0,0.06172839506172839,25.925925925925924,0)" xlink:href="#aJ"/><use transform="matrix(0.06172839506172839,0,0,0.06172839506172839,33.2716049382716,0)" xlink:href="#au"/><use transform="matrix(0.06172839506172839,0,0,0.06172839506172839,45.61728395061728,0)" xlink:href="#az"/><use transform="matrix(0.06172839506172839,0,0,0.06172839506172839,64.07407407407406,0)" xlink:href="#aB"/><use transform="matrix(0.06172839506172839,0,0,0.06172839506172839,68.9506172839506,0)" xlink:href="#aO"/></g><g id="A"><use transform="matrix(0.06172839506172839,0,0,0.06172839506172839,0,0)" xlink:href="#ae"/><use transform="matrix(0.06172839506172839,0,0,0.06172839506172839,14.814814814814813,0)" xlink:href="#ar"/><use transform="matrix(0.06172839506172839,0,0,0.06172839506172839,27.160493827160494,0)" xlink:href="#ar"/><use transform="matrix(0.06172839506172839,0,0,0.06172839506172839,39.50617283950617,0)" xlink:href="#aA"/><use transform="matrix(0.06172839506172839,0,0,0.06172839506172839,44.382716049382715,0)" xlink:href="#aB"/><use transform="matrix(0.06172839506172839,0,0,0.06172839506172839,49.25925925925926,0)" xlink:href="#as"/><use transform="matrix(0.06172839506172839,0,0,0.06172839506172839,61.60493827160494,0)" xlink:href="#aC"/></g><path fill="#3a414a" d="M110-160c48 1 74 30 74 79 0 53-28 85-80 85-65 0-83-55-86-122-5-90 50-162 133-122 14 7 22 21 27 39l-31 6c-5-40-67-38-82-6-9 19-15 44-15 74 11-20 30-34 60-33zm-7 138c34 0 49-23 49-58s-16-56-50-56c-29 0-50 16-49 49 1 36 15 65 50 65" id="aP"/><g id="B"><use transform="matrix(0.04320987654320986,0,0,0.04320987654320986,0,0)" xlink:href="#aP"/><use transform="matrix(0.04320987654320986,0,0,0.04320987654320986,8.641975308641973,0)" xlink:href="#am"/></g><use transform="matrix(0.04320987654320986,0,0,0.04320987654320986,0,0)" xlink:href="#aM" id="C"/><g id="D"><use transform="matrix(0.04320987654320986,0,0,0.04320987654320986,0,0)" xlink:href="#ak"/><use transform="matrix(0.04320987654320986,0,0,0.04320987654320986,7.475308641975307,0)" xlink:href="#ak"/><use transform="matrix(0.04320987654320986,0,0,0.04320987654320986,16.117283950617278,0)" xlink:href="#al"/></g><g id="E"><use transform="matrix(0.04320987654320986,0,0,0.04320987654320986,0,0)" xlink:href="#ak"/><use transform="matrix(0.04320987654320986,0,0,0.04320987654320986,7.475308641975307,0)" xlink:href="#ak"/><use transform="matrix(0.04320987654320986,0,0,0.04320987654320986,16.117283950617278,0)" xlink:href="#al"/></g><path fill="#3a414a" d="M54-142c48-35 137-8 131 61C196 18 31 33 14-55l32-4c7 23 22 37 52 37 35-1 51-22 54-58 4-55-73-65-99-34H22l8-134h141v27H59" id="aQ"/><g id="F"><use transform="matrix(0.04320987654320986,0,0,0.04320987654320986,0,0)" xlink:href="#al"/><use transform="matrix(0.04320987654320986,0,0,0.04320987654320986,8.641975308641973,0)" xlink:href="#aQ"/><use transform="matrix(0.04320987654320986,0,0,0.04320987654320986,17.283950617283946,0)" xlink:href="#aP"/></g><g id="G"><use transform="matrix(0.04320987654320986,0,0,0.04320987654320986,0,0)" xlink:href="#aQ"/><use transform="matrix(0.04320987654320986,0,0,0.04320987654320986,8.641975308641973,0)" xlink:href="#aP"/></g><g id="H"><use transform="matrix(0.04320987654320986,0,0,0.04320987654320986,0,0)" xlink:href="#aQ"/><use transform="matrix(0.04320987654320986,0,0,0.04320987654320986,8.641975308641973,0)" xlink:href="#aP"/></g><g id="I"><use transform="matrix(0.04320987654320986,0,0,0.04320987654320986,0,0)" xlink:href="#aQ"/><use transform="matrix(0.04320987654320986,0,0,0.04320987654320986,8.641975308641973,0)" xlink:href="#ak"/><use transform="matrix(0.04320987654320986,0,0,0.04320987654320986,17.283950617283946,0)" xlink:href="#al"/></g><path fill="#3a414a" d="M134-131c28 9 52 24 51 62-1 50-34 73-85 73S17-19 16-69c0-36 21-54 49-61-75-25-45-126 34-121 46 3 78 18 79 63 0 33-17 51-44 57zm-34-11c31 1 46-15 46-44 0-28-17-43-47-42-29 0-46 13-45 42 1 28 16 44 46 44zm1 122c35 0 51-18 51-52 0-30-18-46-53-46-33 0-51 17-51 47 0 34 19 51 53 51" id="aR"/><g id="J"><use transform="matrix(0.04320987654320986,0,0,0.04320987654320986,0,0)" xlink:href="#al"/><use transform="matrix(0.04320987654320986,0,0,0.04320987654320986,8.641975308641973,0)" xlink:href="#aR"/></g><g id="K"><use transform="matrix(0.04320987654320986,0,0,0.04320987654320986,0,0)" xlink:href="#al"/><use transform="matrix(0.04320987654320986,0,0,0.04320987654320986,8.641975308641973,0)" xlink:href="#aR"/></g><path fill="#3a414a" d="M101-251c68 0 85 55 85 127S166 4 100 4C33 4 14-52 14-124c0-73 17-127 87-127zm-1 229c47 0 54-49 54-102s-4-102-53-102c-51 0-55 48-55 102 0 53 5 102 54 102" id="aS"/><g id="L"><use transform="matrix(0.04320987654320986,0,0,0.04320987654320986,0,0)" xlink:href="#ak"/><use transform="matrix(0.04320987654320986,0,0,0.04320987654320986,8.641975308641973,0)" xlink:href="#aS"/><use transform="matrix(0.04320987654320986,0,0,0.04320987654320986,17.283950617283946,0)" xlink:href="#al"/><use transform="matrix(0.04320987654320986,0,0,0.04320987654320986,25.925925925925917,0)" xlink:href="#am"/></g><g id="M"><use transform="matrix(0.04320987654320986,0,0,0.04320987654320986,0,0)" xlink:href="#ak"/><use transform="matrix(0.04320987654320986,0,0,0.04320987654320986,8.641975308641973,0)" xlink:href="#am"/></g><g id="N"><use transform="matrix(0.04320987654320986,0,0,0.04320987654320986,0,0)" xlink:href="#ak"/><use transform="matrix(0.04320987654320986,0,0,0.04320987654320986,8.641975308641973,0)" xlink:href="#am"/></g><g id="O"><use transform="matrix(0.04320987654320986,0,0,0.04320987654320986,0,0)" xlink:href="#al"/><use transform="matrix(0.04320987654320986,0,0,0.04320987654320986,8.641975308641973,0)" xlink:href="#aS"/><use transform="matrix(0.04320987654320986,0,0,0.04320987654320986,17.283950617283946,0)" xlink:href="#am"/><use transform="matrix(0.04320987654320986,0,0,0.04320987654320986,25.925925925925917,0)" xlink:href="#aR"/></g><path fill="#3a414a" d="M64 0c3-98 48-159 88-221H18v-27h164v26C143-157 98-101 97 0H64" id="aT"/><use transform="matrix(0.04320987654320986,0,0,0.04320987654320986,0,0)" xlink:href="#aT" id="P"/><use transform="matrix(0.04320987654320986,0,0,0.04320987654320986,0,0)" xlink:href="#aT" id="Q"/><g id="R"><use transform="matrix(0.04320987654320986,0,0,0.04320987654320986,0,0)" xlink:href="#an"/><use transform="matrix(0.04320987654320986,0,0,0.04320987654320986,8.641975308641973,0)" xlink:href="#al"/><use transform="matrix(0.04320987654320986,0,0,0.04320987654320986,17.283950617283946,0)" xlink:href="#aS"/></g><use transform="matrix(0.04320987654320986,0,0,0.04320987654320986,0,0)" xlink:href="#an" id="S"/><g id="T"><use transform="matrix(0.04320987654320986,0,0,0.04320987654320986,0,0)" xlink:href="#al"/><use transform="matrix(0.04320987654320986,0,0,0.04320987654320986,8.641975308641973,0)" xlink:href="#al"/><use transform="matrix(0.04320987654320986,0,0,0.04320987654320986,17.283950617283946,0)" xlink:href="#am"/></g><g id="U"><use transform="matrix(0.04320987654320986,0,0,0.04320987654320986,0,0)" xlink:href="#al"/><use transform="matrix(0.04320987654320986,0,0,0.04320987654320986,8.641975308641973,0)" xlink:href="#al"/><use transform="matrix(0.04320987654320986,0,0,0.04320987654320986,17.283950617283946,0)" xlink:href="#am"/></g><use transform="matrix(0.04320987654320986,0,0,0.04320987654320986,0,0)" xlink:href="#as" id="V"/><g id="W"><use transform="matrix(0.04320987654320986,0,0,0.04320987654320986,0,0)" xlink:href="#at"/><use transform="matrix(0.04320987654320986,0,0,0.04320987654320986,7.777777777777775,0)" xlink:href="#aA"/><use transform="matrix(0.04320987654320986,0,0,0.04320987654320986,11.191358024691354,0)" xlink:href="#au"/><use transform="matrix(0.04320987654320986,0,0,0.04320987654320986,19.83333333333333,0)" xlink:href="#ay"/><use transform="matrix(0.04320987654320986,0,0,0.04320987654320986,27.611111111111107,0)" xlink:href="#ay"/><use transform="matrix(0.04320987654320986,0,0,0.04320987654320986,35.38888888888888,0)" xlink:href="#aw"/><use transform="matrix(0.04320987654320986,0,0,0.04320987654320986,44.03086419753085,0)" xlink:href="#ay"/></g></defs></g></svg>